<svg width="29" height="31" viewBox="0 0 29 31" fill="none" xmlns="http://www.w3.org/2000/svg">
<path fill-rule="evenodd" clip-rule="evenodd" d="M7.2573 6.74984C7.68603 3.56365 10.8701 0.916504 14.5 0.916504C18.1298 0.916504 21.3139 3.56365 21.7426 6.74984H25.9435C27.5543 6.74984 28.8602 8.05567 28.8602 9.6665C28.8602 9.80452 28.8504 9.94236 28.8309 10.079L26.3308 27.579C26.1256 29.0159 24.895 30.0832 23.4435 30.0832H5.55644C4.10496 30.0832 2.87436 29.0159 2.66909 27.579L0.16909 10.079C-0.0587161 8.48434 1.04932 7.00696 2.64396 6.77915C2.78059 6.75963 2.91843 6.74984 3.05644 6.74984H7.2573ZM18.7698 6.74984C18.3265 5.2012 16.5388 3.83317 14.5 3.83317C12.4612 3.83317 10.6735 5.2012 10.2301 6.74984H18.7698ZM3.05644 9.6665H7.2083V12.5832H10.125V9.6665H18.875V12.5832H21.7916V9.6665H25.9435L23.4435 27.1665H5.55644L3.05644 9.6665Z" fill="black"/>
</svg>
